<svg xmlns="http://www.w3.org/2000/svg" viewBox="0 0 125.47 92.36"><defs><style>.cls-1{fill:#285056;}.cls-2{fill:#221e2a;}.cls-3{fill:#06e;}</style></defs><g id="레이어_2" data-name="레이어 2"><g id="레이어_1-2" data-name="레이어 1"><path d="M65.83,13.37a44.26,44.26,0,0,0-6.92-4.15l.22-.48a44.6,44.6,0,0,1,7,4.2l-.31.43Z"/><path class="cls-1" d="M14.76,29.2l-.45-.28A46.57,46.57,0,0,1,18.58,23l.4.34a45.6,45.6,0,0,0-4.22,5.86Z"/><path class="cls-1" d="M9,42.63l-.51-.13A41.9,41.9,0,0,1,13,31.32l.43.29A41.88,41.88,0,0,0,9,42.63Z"/><path d="M96.81,27.51c-.38-.33-.8-.71-1.29-1.16a30.13,30.13,0,0,0-6.93-5.09l.23-.47A30.66,30.66,0,0,1,95.88,26c.47.44.89.83,1.27,1.14l-.34.41Z"/><path d="M68.05,10.81c-5.22-2.08-14.84-2.09-18.73-2V8.28c3.92-.09,13.62-.07,18.93,2l-.19.49Z"/><path d="M73,31.83c-7.46-9.19-14.69-15.94-21.48-20.08l.27-.45c6.85,4.17,14.12,11,21.62,20.2l-.41.33Z"/><path d="M62.37,37c-2.83-3.48-5.66-6.64-8.41-9.42l.37-.36a125.17,125.17,0,0,1,8.45,9.45l-.41.33Z"/><path d="M53.48,43.87c-2.65-3.16-5.29-6-7.87-8.57l.37-.37c2.59,2.54,5.25,5.43,7.91,8.6l-.41.34Z"/><path d="M45.59,51.08C32.88,36.22,23.17,31.33,17.26,29.84l.13-.51c6,1.51,15.8,6.44,28.6,21.41l-.4.34Z"/><path d="M38.05,59.06A88.65,88.65,0,0,0,24.38,46.3l.31-.43A89.28,89.28,0,0,1,38.45,58.71l-.4.35Z"/><path d="M32,67.62c-2-2.4-4.09-4.61-6.1-6.57l.37-.37c2,2,4.08,4.19,6.13,6.59l-.4.35Z"/><path d="M62.61,51.66l-.39-.35C72.1,40.63,81.65,33,90.62,28.76l.23.48C81.94,33.49,72.44,41,62.61,51.66Z"/><polygon class="cls-1" points="45.66 72.69 45.23 72.38 45.53 71.96 45.96 72.26 45.66 72.69 45.66 72.69"/><path d="M60.85,53.6l-.4-.35.7-.78.39.36-.69.77Zm-1.38,1.55-.4-.35.69-.78.39.35-.68.78Zm-1.36,1.57-.4-.34.68-.79.4.34-.68.79ZM56.77,58.3,56.36,58l.67-.79.4.34-.66.79Zm-1.33,1.6L55,59.56l.66-.8.41.33-.66.81Zm-1.31,1.61-.41-.34.65-.8.41.33-.65.81Zm-1.3,1.62-.41-.33.64-.81.42.32-.65.82Zm-1.28,1.63-.42-.32.64-.82.42.32-.64.82Zm-1.27,1.65-.42-.32.63-.83.42.33-.63.82ZM49,68.07l-.42-.32.62-.83.42.32-.62.83Zm-1.24,1.67-.42-.31.61-.84.43.32-.62.83Zm-1.22,1.68-.43-.31.61-.84.43.31-.61.84Z"/><polygon points="62.25 52.05 61.86 51.7 62.22 51.31 62.61 51.66 62.25 52.05 62.25 52.05"/><path d="M35.84,87.55l-.45-.27c1.61-2.67,5-8.15,9.83-14.9l.43.31c-4.8,6.73-8.2,12.2-9.81,14.86Z"/><path d="M48.21,90.7l-.45-.28c7.51-12,34.09-51.58,60.93-56.4l.1.52C82.16,39.32,55.69,78.73,48.21,90.7Z"/><path d="M61.48,92.16,61,91.87c9.6-14.61,34.41-48.44,58.33-48.44h.42V44h-.41C95.71,44,71,77.62,61.48,92.16Z"/><path d="M77.58,91.6l-.43-.29c9.61-14,28.44-37.45,46.71-37.45H124v.53h-.11c-18,0-36.73,23.3-46.28,37.21Z"/><path d="M95.61,87.71l-.4-.33c7-8.57,17.54-19.27,28.21-21.55l.11.52c-10.51,2.25-21,12.86-27.92,21.36Z"/><path d="M23.94,82c23.17,13.22,60.64,13.17,83.69-.15,11.17-6.44,17.31-15,17.31-24.08s-6.14-17.63-17.31-24.08l-1.46-.85A43.43,43.43,0,0,0,98.57,29c-.74,0-9.74,0-13.58.41-7.11.72-14.28,2.84-19.19,5.66C39.89,50,25.24,79.28,23.94,82ZM65.66,92.36c-15.29,0-30.59-3.36-42.23-10.08C12.15,75.77,6.5,68.76,6.18,60.87l.52,0C7,68.5,12.51,75.32,23.49,81.7c1.42-2.94,16.12-32.17,42-47.07,5-2.86,12.23-5,19.41-5.72,4-.41,13.57-.41,13.68-.41h.08a43.62,43.62,0,0,1,7.74,3.84l1.46.85c11.33,6.55,17.57,15.26,17.57,24.54s-6.24,18-17.57,24.54C96.26,89,81,92.36,65.66,92.36Z"/><path class="cls-2" d="M51.14,14.21a14.71,14.71,0,0,0-5.31-6.66l.6-.87a15.75,15.75,0,0,1,5.69,7.14l-1,.39Z"/><path class="cls-2" d="M45.18,19.92l-.87-.61C47.38,15,46.52,9.87,45.73,7.22a2.18,2.18,0,0,0-1.1-1.34,15.58,15.58,0,0,0-9.22-1.46,15.18,15.18,0,0,0-4.7,1.5L30.24,5a15.92,15.92,0,0,1,5-1.6A16.61,16.61,0,0,1,45.1,4.93a3.25,3.25,0,0,1,1.65,2c.83,2.83,1.75,8.28-1.57,13Z"/><path class="cls-2" d="M46.58,24c-2.7-3.82-6.63-5.44-11.19-7.31l-.21-.09a8.64,8.64,0,0,1-5.49-8.57,19.21,19.21,0,0,1,.4-2.46.38.38,0,0,0-.15-.39.32.32,0,0,0-.37,0,15.23,15.23,0,0,0-4.39,4.17l-.85-.62A16.3,16.3,0,0,1,29,4.3a1.37,1.37,0,0,1,1.54,0,1.43,1.43,0,0,1,.57,1.48,17.54,17.54,0,0,0-.37,2.25,7.54,7.54,0,0,0,4.83,7.58l.21.09c4.52,1.84,8.78,3.6,11.65,7.67l-.86.61Z"/><path class="cls-2" d="M43.34,35.32l-.12-1C43.66,34.22,54,33,54,21.24H55C55,33.92,43.45,35.3,43.34,35.32Z"/><path class="cls-2" d="M38.16,35.89C24.81,35.89,20.88,26,20,22.78l1-.29c1,3.33,5.26,14,20.83,12.1l.12,1a29.52,29.52,0,0,1-3.76.25Z"/><path class="cls-2" d="M23.8,9.88c-1.91.67-5.76,2.51-5.94,6.54-.23,5.25,5,7.23,8.78,8.67,1.78.67,3.08,1.16,3.61,1.89a13.14,13.14,0,0,0,6.83,4.79c2.86.67,5.28.14,6.7-1.4h-.06c-2.61,0-7.53-.86-13.7-6-7.86-6.5-7-12.18-6.22-14.51ZM39.35,33.1a11.07,11.07,0,0,1-2.5-.3,14.07,14.07,0,0,1-7.44-5.19,9.59,9.59,0,0,0-3.15-1.54c-3.87-1.46-9.72-3.68-9.45-9.69.27-6.18,7.76-7.83,7.84-7.85a.54.54,0,0,1,.54.22.53.53,0,0,1,0,.59c-.17.26-4,6.39,5.49,14.24,7,5.8,12.2,5.9,14.11,5.67a.53.53,0,0,1,.52.79,6.56,6.56,0,0,1-6,3.06Z"/><path class="cls-2" d="M52.3,14.38a5.31,5.31,0,0,1-1.19,5.17c-1.4,1.75-4.33,8.45-5.36,10.82,1.86-.64,3.53-3.73,4.09-5.51.46-1.48,1.85-2.4,3.33-3.37.52-.35,1.07-.71,1.56-1.09.76-.59.51-2.89-.5-4.56-.29-.49-1-1.51-1.93-1.46ZM45.09,31.54h-.22a.51.51,0,0,1-.41-.25.54.54,0,0,1,0-.48c.17-.39,4.07-9.66,5.87-11.91a4.31,4.31,0,0,0,.84-4.69.53.53,0,0,1,.28-.66c1.31-.6,2.7.06,3.73,1.75,1.19,2,1.58,4.91.24,5.95-.53.4-1.09.77-1.63,1.13-1.31.87-2.55,1.68-2.9,2.8-.44,1.37-2.65,6.37-5.76,6.37Z"/><path class="cls-2" d="M24.56,49.16a10.35,10.35,0,0,0-3.64-4.61l.61-.87a11.33,11.33,0,0,1,4,5.09l-1,.39Z"/><path class="cls-2" d="M16.23,50.83l-.7-.8c.85-.74,1.65-1.37,2.35-1.93,2.24-1.77,3.21-2.61,2.81-4a1.41,1.41,0,0,0-.71-.87,11,11,0,0,0-6.5-1,10.34,10.34,0,0,0-2.92.87l-.44-1a11.3,11.3,0,0,1,3.21-1,12,12,0,0,1,7.12,1.12,2.5,2.5,0,0,1,1.26,1.51c.61,2.08-1,3.34-3.18,5.08-.69.55-1.47,1.17-2.3,1.9Z"/><path class="cls-2" d="M20.85,56.06A10.82,10.82,0,0,0,18.79,55c-2.31-1-4.93-2.14-6-7.18-.87-4.17-3.1-5-3.5-5a10.72,10.72,0,0,0-3,2.9l-.86-.61A11.9,11.9,0,0,1,8.8,41.89a1.62,1.62,0,0,1,1.37.08c.65.27,2.81,1.49,3.67,5.61.94,4.51,3.19,5.49,5.37,6.44a11.53,11.53,0,0,1,2.26,1.18l-.62.86Z"/><path class="cls-2" d="M15.58,65.29a12.22,12.22,0,0,1-1.35-.08A11.92,11.92,0,0,1,3.76,57.43l1-.39a10.91,10.91,0,0,0,9.6,7.12A12.2,12.2,0,0,0,24,61a8.61,8.61,0,0,0,2.6-7.09l1.06-.09a9.66,9.66,0,0,1-2.92,7.93,13.2,13.2,0,0,1-9.13,3.57Z"/><path class="cls-2" d="M4.92,46.26c-1.4.54-3.75,1.83-3.86,4.44-.16,3.65,3.5,5,6.18,6a6.24,6.24,0,0,1,2.65,1.41,9.24,9.24,0,0,0,4.8,3.37,4.86,4.86,0,0,0,4.38-.72c-1.95-.06-5.36-.81-9.57-4.3-5.37-4.45-5.13-8.38-4.58-10.24ZM16.28,62.77a8.46,8.46,0,0,1-1.83-.22A10.23,10.23,0,0,1,9,58.77a7.07,7.07,0,0,0-2.18-1c-2.8-1.06-7-2.67-6.85-7.08s5.67-5.74,5.72-5.75a.55.55,0,0,1,.55.22.53.53,0,0,1,0,.59c-.12.19-2.76,4.47,3.9,10,5,4.11,8.62,4.18,10,4a.53.53,0,0,1,.52.79,4.82,4.82,0,0,1-4.39,2.27Z"/><path class="cls-2" d="M25.73,49.4A3.91,3.91,0,0,1,24.8,53a52.79,52.79,0,0,0-3.65,7.34,7.61,7.61,0,0,0,2.48-3.69,5.23,5.23,0,0,1,2.44-2.48c.38-.25.76-.5,1.11-.77s.32-1.89-.39-3.07c-.18-.28-.57-.85-1.06-1ZM20.38,61.65h-.17a.51.51,0,0,1-.41-.25.52.52,0,0,1,0-.47c.12-.29,2.92-6.93,4.22-8.56a2.93,2.93,0,0,0,.57-3.21.53.53,0,0,1,.28-.66c1-.46,2.08,0,2.86,1.32s1.27,3.56.14,4.44c-.39.3-.79.56-1.18.82-.91.6-1.78,1.17-2,1.92-.38,1.23-2,4.66-4.25,4.66Z"/><path class="cls-2" d="M87.27,14a8.59,8.59,0,0,0-2.8-4l.66-.82a9.7,9.7,0,0,1,3.14,4.5l-1,.34Z"/><path class="cls-2" d="M83.38,17.66l-.8-.68c2.28-2.67,1.76-6,1.25-7.68a1.12,1.12,0,0,0-.56-.69,9.18,9.18,0,0,0-5.46-.86,8.79,8.79,0,0,0-2,.54l-.39-1a10.19,10.19,0,0,1,8.33.35A2.17,2.17,0,0,1,84.84,9c.58,1.92,1.15,5.62-1.46,8.66Z"/><path class="cls-2" d="M84.8,20c-1.23-2.25-3.34-3.16-5.39-4-.66-.28-1.29-.55-1.89-.87a5.73,5.73,0,0,1-3.41-5.36,12.53,12.53,0,0,1,.25-1.53,8.59,8.59,0,0,0-2.6,2.44L70.9,10a10.09,10.09,0,0,1,2.9-2.75,1,1,0,0,1,1.16,0,1.06,1.06,0,0,1,.43,1.11,11.53,11.53,0,0,0-.22,1.32A4.67,4.67,0,0,0,78,14.17c.56.29,1.17.55,1.82.83,2.1.9,4.49,1.92,5.9,4.49L84.8,20Z"/><path class="cls-2" d="M82.55,26.45a.53.53,0,0,1-.51-.37l-.41-1.34,1-.31.27.88a7.56,7.56,0,0,0,5.89-7.84h1.06a8.76,8.76,0,0,1-7.24,9Z"/><path class="cls-2" d="M79.16,27.36c-7.32,0-10-5.32-10.93-8.65l1-.29c1.14,4,4.06,8.56,11.51,7.8l.11,1.05a16.87,16.87,0,0,1-1.7.09Z"/><path class="cls-2" d="M70.41,11.2c-1.18.49-3,1.56-3,3.61-.13,3,2.94,4.19,5.18,5a5.38,5.38,0,0,1,2.28,1.22,7.77,7.77,0,0,0,4,2.83,4.26,4.26,0,0,0,3.48-.46c-1.7-.11-4.51-.81-7.94-3.65-4.47-3.71-4.43-6.94-4-8.59Zm9.76,13.91a6.79,6.79,0,0,1-1.57-.19A8.75,8.75,0,0,1,74,21.7a6.2,6.2,0,0,0-1.81-.86c-2.4-.91-6-2.28-5.86-6.07S71,9.87,71.23,9.83a.51.51,0,0,1,.54.22.53.53,0,0,1,0,.58c-.1.16-2.3,3.73,3.28,8.35,4.17,3.45,7.25,3.52,8.38,3.38a.53.53,0,0,1,.5.24.52.52,0,0,1,0,.55,4.15,4.15,0,0,1-3.79,2Z"/><path class="cls-2" d="M88.28,13.83a3.41,3.41,0,0,1-.83,3,41.94,41.94,0,0,0-3,5.93,6.9,6.9,0,0,0,1.83-2.91,4.61,4.61,0,0,1,2.1-2.16,10.35,10.35,0,0,0,.94-.64c.3-.24.26-1.47-.36-2.49a1.76,1.76,0,0,0-.71-.73ZM83.64,24.16h-.15a.53.53,0,0,1-.41-.25.55.55,0,0,1,0-.48c.1-.24,2.48-5.88,3.59-7.26a2.41,2.41,0,0,0,.47-2.64.53.53,0,0,1,.28-.66c.9-.41,1.84,0,2.52,1.15s1.09,3.09.1,3.86c-.33.25-.67.48-1,.7-.77.5-1.49,1-1.68,1.58-.33,1.06-1.71,4-3.68,4Z"/><path class="cls-3" d="M34.9,56.59l-.53,0c.09-2.27.59-5.24,2.5-6.47l.28.44c-1.72,1.11-2.17,3.91-2.25,6.05Z"/><path class="cls-3" d="M40.17,51.37a6,6,0,0,1-4.07-.85A6.06,6.06,0,0,1,39.38,48a6,6,0,0,1,4.07.85,6.06,6.06,0,0,1-3.28,2.54Z"/><path class="cls-3" d="M36.48,50.43a5.54,5.54,0,0,0,3.63.69,5.55,5.55,0,0,0,3-2.2,5.54,5.54,0,0,0-3.63-.69,5.55,5.55,0,0,0-3,2.2Zm2.77,1.31a6.68,6.68,0,0,1-3.29-1,.26.26,0,0,1-.08-.36,6.24,6.24,0,0,1,3.44-2.66,6.26,6.26,0,0,1,4.27.88.26.26,0,0,1,.08.36,6.2,6.2,0,0,1-3.44,2.67,4.75,4.75,0,0,1-1,.11Z"/><path class="cls-3" d="M34,46.27a7.46,7.46,0,0,1,2.15-4.66,7.42,7.42,0,0,1,2.15,4.65,7.42,7.42,0,0,1-2.14,4.66A7.46,7.46,0,0,1,34,46.27Z"/><path class="cls-3" d="M36.1,42a6.89,6.89,0,0,0-1.88,4.27,6.91,6.91,0,0,0,1.89,4.26A7,7,0,0,0,38,46.26,7,7,0,0,0,36.1,42Zm0,9.18a.31.31,0,0,1-.18-.07,7.61,7.61,0,0,1-2.24-4.84,7.67,7.67,0,0,1,2.22-4.85.27.27,0,0,1,.37,0,7.67,7.67,0,0,1,2.24,4.84A7.6,7.6,0,0,1,36.3,51.1a.29.29,0,0,1-.19.08Z"/><path class="cls-3" d="M59.74,14.22l-.5-.17c1.06-3.15,1-5.52-.12-7.25l.44-.29c1.24,1.88,1.3,4.4.18,7.71Z"/><path class="cls-3" d="M55.47,8.79a6.88,6.88,0,0,0,4.66,1,6.94,6.94,0,0,0-2.27-4.19,6.88,6.88,0,0,0-4.66-1,6.94,6.94,0,0,0,2.27,4.19Z"/><path class="cls-3" d="M53.51,4.83a6.46,6.46,0,0,0,2.12,3.75,6.45,6.45,0,0,0,4.19,1A6.46,6.46,0,0,0,57.7,5.79a6.45,6.45,0,0,0-4.19-1Zm5.61,5.28A6.42,6.42,0,0,1,55.31,9a7.12,7.12,0,0,1-2.37-4.37.26.26,0,0,1,.22-.29,7.07,7.07,0,0,1,4.86,1,7.06,7.06,0,0,1,2.37,4.37.26.26,0,0,1-.22.29,5.94,5.94,0,0,1-1.05.08Z"/><path class="cls-3" d="M64.5,6.14c1.19-2.69-.09-5.88-.09-5.88S61.19,1.45,60,4.14s.1,5.88.1,5.88,3.22-1.19,4.41-3.88Z"/><path class="cls-3" d="M64.25.61a8.13,8.13,0,0,0-4,3.64,8.1,8.1,0,0,0,0,5.42,8,8,0,0,0,4-3.64,8.11,8.11,0,0,0,0-5.42Zm-4.16,9.68a.27.27,0,0,1-.25-.17C59.79,10,58.53,6.8,59.75,4a8.62,8.62,0,0,1,4.57-4,.25.25,0,0,1,.33.14,8.65,8.65,0,0,1,.09,6.09,8.68,8.68,0,0,1-4.56,4l-.09,0Z"/><path class="cls-3" d="M17.47,37.25a7.64,7.64,0,0,0-4.34-5.95l.21-.48A8.16,8.16,0,0,1,18,37.17l-.52.08Z"/><path class="cls-3" d="M10.49,34.12A6.92,6.92,0,0,0,15,32.48a6.9,6.9,0,0,0-4.14-2.35,7,7,0,0,0-4.48,1.65,6.9,6.9,0,0,0,4.15,2.34Z"/><path class="cls-3" d="M10.51,33.85a6.38,6.38,0,0,0,4.07-1.41,6.43,6.43,0,0,0-3.79-2,6.37,6.37,0,0,0-4.06,1.41,6.4,6.4,0,0,0,3.78,2Zm.34.55-.38,0a7.08,7.08,0,0,1-4.33-2.44.25.25,0,0,1,0-.36,7.08,7.08,0,0,1,4.67-1.71,7.13,7.13,0,0,1,4.33,2.44.25.25,0,0,1,0,.36,7.28,7.28,0,0,1-4.29,1.73Z"/><path class="cls-3" d="M16.43,26.89C16,24,13.22,22,13.22,22s-2.09,2.72-1.67,5.63,3.21,4.93,3.21,4.93,2.09-2.72,1.67-5.63Z"/><path class="cls-3" d="M13.28,22.34a8,8,0,0,0-1.47,5.22,8,8,0,0,0,2.89,4.58,8.07,8.07,0,0,0,1.47-5.22,8.08,8.08,0,0,0-2.89-4.58Zm1.48,10.44a.24.24,0,0,1-.16-.05,8.64,8.64,0,0,1-3.31-5.1c-.44-3,1.64-5.72,1.72-5.83a.26.26,0,0,1,.37-.05,8.65,8.65,0,0,1,3.31,5.1A8.63,8.63,0,0,1,15,32.68a.23.23,0,0,1-.2.1Z"/></g></g></svg>