<svg xmlns="http://www.w3.org/2000/svg" viewBox="0 0 125.47 111.09"><defs><style>.cls-1{fill:#06e;}.cls-2{fill:#221e2a;}</style></defs><g id="레이어_2" data-name="레이어 2"><g id="레이어_1-2" data-name="레이어 1"><path d="M24.15,37.4h-.51V24.91a.23.23,0,0,1,0-.14L32.3,12l.17-8.66a.29.29,0,0,1,.13-.22L38.06,0l.26.44L33,3.52l-.18,8.6a.37.37,0,0,1,0,.14L24.15,25V37.4Z"/><path d="M25.18,35.81h-.51V26a.26.26,0,0,1,0-.15L33.39,13l.18-8.73A.26.26,0,0,1,33.7,4L39.19.86a.24.24,0,0,1,.26,0,.26.26,0,0,1,.13.22V9.75h-.51V1.53l-5,2.88-.18,8.65a.33.33,0,0,1,0,.14L25.18,26v9.79Z"/><polygon points="39.29 1.42 37.8 0.44 38.08 0.01 39.58 0.99 39.29 1.42 39.29 1.42"/><polygon points="33.66 4.45 32.57 3.58 32.9 3.17 33.98 4.06 33.66 4.45 33.66 4.45"/><polygon points="33.65 13.31 32.16 12.33 32.44 11.9 33.93 12.88 33.65 13.31 33.65 13.31"/><polygon points="24.86 26 23.73 25.11 24.05 24.71 25.18 25.6 24.86 26 24.86 26"/><path d="M109.88,89.79l-.26-.45L125,80.48V48.33h.51V80.62a.25.25,0,0,1-.13.23l-15.46,8.94Z"/><path d="M72.74,111.09a.27.27,0,0,1-.18-.08.27.27,0,0,1,0-.31L92.38,77.79l.43.26L73.48,110.11l19-11,.26.45L72.87,111.06a.28.28,0,0,1-.13,0Z"/><polygon points="26.67 84.55 23.27 82.58 23.52 82.14 26.93 84.1 26.67 84.55 26.67 84.55"/><polygon points="49.97 97.99 46.51 96 46.77 95.55 50.23 97.55 49.97 97.99 49.97 97.99"/><polygon points="72.61 111.06 69.75 109.4 70 108.95 72.87 110.61 72.61 111.06 72.61 111.06"/><path d="M110.82,56.8l-.26-.45,13.93-8L56.11,8.86,46.7,14.29l-.25-.44L56,8.34a.3.3,0,0,1,.26,0l68.9,39.75a.27.27,0,0,1,.13.22.3.3,0,0,1-.13.23L110.82,56.8Z"/><polygon points="38.78 24.64 34.83 22.36 35.09 21.92 39.03 24.19 38.78 24.64 38.78 24.64"/><path d="M3.94,70.78l-.43-.27,15-24.59c11.8-19.38,14.34-23.55,14.94-24.45V15.41h.51v6.06a.23.23,0,0,1,0,.14c-.37.59-29.64,48.68-29.94,49.17Z"/><path d="M55.62,25.62,33.67,13.33a.25.25,0,0,1-.14-.23.24.24,0,0,1,.14-.22l5.64-3.07a.28.28,0,0,1,.25,0L56,19.09l-.25.45L39.43,10.33l-5.11,2.78L55.86,25.18l-.24.44Z"/><path class="cls-1" d="M56.91,16a.32.32,0,0,1,.14,0L37.22,4.54a.57.57,0,0,0-.79.21.58.58,0,0,0,.21.79L55.91,16.67a1,1,0,0,1,1-.7Z"/><path d="M48.58,50a.11.11,0,0,1-.07,0,.25.25,0,0,1-.19-.24V39.23a.24.24,0,0,1,0-.14l8.68-12.83.18-8.72a.25.25,0,0,1,.13-.22l5.49-3.18a.3.3,0,0,1,.26,0,.26.26,0,0,1,.13.22v8.76h-.52V14.81l-5,2.88-.18,8.66a.27.27,0,0,1-.05.14L48.84,39.31v9.44l8.24-13.88.44.26L48.8,49.82a.25.25,0,0,1-.22.13Z"/><path d="M48.39,49.78l-1.49-1a.27.27,0,0,1-.12-.22V38.2a.3.3,0,0,1,0-.15l8.61-12.73.18-8.66a.25.25,0,0,1,.13-.22l5.48-3.15a.25.25,0,0,1,.25,0l1.63.86-.25.45-1.49-.79-5.24,3L56,25.41a.27.27,0,0,1,0,.14L47.3,38.28V48.44l1.37.91-.28.43Z"/><polygon points="57.27 17.86 55.78 16.88 56.06 16.45 57.55 17.43 57.27 17.86 57.27 17.86"/><polygon points="57.09 26.59 55.6 25.62 55.88 25.19 57.37 26.17 57.09 26.59 57.09 26.59"/><polygon points="48.44 39.4 46.95 38.41 47.23 37.99 48.72 38.97 48.44 39.4 48.44 39.4"/><path d="M61.73,37.82,57.2,35.2a.26.26,0,0,1-.13-.22V26.21h.51v8.62L62,37.38l-.26.44Z"/><path d="M79.05,38.89,57.1,26.6a.3.3,0,0,1-.13-.23.29.29,0,0,1,.14-.23l5.64-3.06a.28.28,0,0,1,.25,0l15.68,8.85-.25.45L62.87,23.6l-5.11,2.77L79.31,38.45l-.26.44Z"/><path class="cls-1" d="M80.07,29.31l-19.13-11a.58.58,0,1,0-.58,1l19.07,11a1,1,0,0,1,.64-1Z"/><path d="M71.73,63.2h-.07a.26.26,0,0,1-.19-.25V52.49a.24.24,0,0,1,0-.15l8.68-12.83.18-8.72a.26.26,0,0,1,.13-.22L86,27.4a.23.23,0,0,1,.25,0,.23.23,0,0,1,.13.22V36.5h-.51V28.07l-5,2.88L80.7,39.6a.33.33,0,0,1,0,.14L72,52.56V62L80.23,48.4l.43.26L72,63.08a.27.27,0,0,1-.22.12Z"/><path d="M71.57,63.15l-1-.8a.26.26,0,0,1-.1-.2V51.45a.24.24,0,0,1,0-.14L79.1,38.57l.18-8.66a.26.26,0,0,1,.12-.21l5.38-3.16a.28.28,0,0,1,.28,0l1.22.86-.3.42-1.08-.76-5.11,3-.18,8.59a.33.33,0,0,1,0,.14L71,51.53V62l.93.72-.31.41Z"/><polygon points="80.48 31.01 79.33 30.21 79.63 29.78 80.77 30.59 80.48 31.01 80.48 31.01"/><polygon points="80.53 39.85 79.04 38.87 79.32 38.44 80.81 39.42 80.53 39.85 80.53 39.85"/><polygon points="71.69 52.52 70.55 51.66 70.85 51.25 72 52.1 71.69 52.52 71.69 52.52"/><path d="M102.27,52.66,80.54,39.86a.25.25,0,0,1-.13-.22.28.28,0,0,1,.14-.22l5.64-3.07a.27.27,0,0,1,.26,0l16.21,9.76-.27.45-16.08-9.7-5.12,2.78,21.34,12.56-.26.45Z"/><path d="M84.76,51.28l-4.42-2.55a.25.25,0,0,1-.13-.22V39.58h.52v8.78L85,50.84l-.26.44Z"/><path class="cls-1" d="M103.52,42.92h.12L84.35,31.78a.58.58,0,1,0-.58,1L102.51,43.6a1.14,1.14,0,0,1,1-.68Z"/><path d="M95.64,66.29v33.1l13.89-8V41.78l-5,2.88-.18,8.66a.33.33,0,0,1,0,.14L95.64,66.29Zm-.26,33.8a.25.25,0,0,1-.25-.26V66.2a.25.25,0,0,1,0-.14l8.68-12.83.18-8.72a.25.25,0,0,1,.13-.22l5.5-3.18a.28.28,0,0,1,.25,0,.25.25,0,0,1,.13.23V91.52a.23.23,0,0,1-.13.22l-14.4,8.32a.25.25,0,0,1-.13,0Z"/><path d="M95.19,99.84l-1.49-1a.27.27,0,0,1-.12-.21V65.26a.25.25,0,0,1,0-.15l8.61-12.74.18-8.66a.23.23,0,0,1,.13-.21l5.52-3.22a.23.23,0,0,1,.25,0l1.59.83-.24.46-1.46-.77-5.28,3.07-.18,8.59a.23.23,0,0,1,0,.14L94.1,65.33V98.51l1.38.9-.29.43Z"/><polygon points="104.18 44.74 102.48 43.95 102.7 43.48 104.39 44.28 104.18 44.74 104.18 44.74"/><polygon points="103.76 53.65 102.27 52.67 102.55 52.24 104.04 53.22 103.76 53.65 103.76 53.65"/><polygon points="95.11 66.45 93.61 65.47 93.9 65.04 95.38 66.02 95.11 66.45 95.11 66.45"/><path class="cls-2" d="M88.4,48.88a1.33,1.33,0,0,0-1.12.55s0,0,0,0L50.39,98.07l-.08.09s-3.27,2.83-3,5.62c.14,1.35,1.11,2.51,2.88,3.47,6.35,3.42,17.4,1.76,19.19,1.46L95.64,57.4v-.77a7.58,7.58,0,0,0-3.43-5.92l-2.42-1.4a2.81,2.81,0,0,0-1.39-.43ZM61.26,110.42c-3.83,0-8.22-.49-11.53-2.27-2.08-1.13-3.23-2.56-3.42-4.26-.33-3.17,2.85-6.09,3.28-6.48L86.39,48.9l0-.06c.84-1.16,2.32-1.32,3.87-.42l2.41,1.39a8.59,8.59,0,0,1,4,6.82v.9a.46.46,0,0,1-.06.23l-26.4,51.65a.52.52,0,0,1-.36.27,51.63,51.63,0,0,1-8.59.74Z"/><path class="cls-1" d="M90.28,52.11,89,51.37c-.72-.42-1.34-.33-1.68.14a.1.1,0,0,0,0,.05S53.8,96.17,57.57,98.2C60.94,100,85.82,64.69,91.21,57a3.42,3.42,0,0,0-.66-4.69l-.27-.17Z"/><path class="cls-2" d="M65.26,35.4a1.33,1.33,0,0,0-1.12.55l0,0L27.24,84.6l-.08.08s-3.27,2.83-3,5.62c.15,1.35,1.12,2.51,2.88,3.46,6.36,3.43,17.41,1.77,19.2,1.48L72.5,43.92v-.77a7.58,7.58,0,0,0-3.43-5.92l-2.42-1.4a2.84,2.84,0,0,0-1.39-.43ZM38.12,96.94c-3.84,0-8.23-.49-11.54-2.27-2.08-1.12-3.23-2.56-3.41-4.26-.34-3.17,2.85-6.09,3.28-6.47l36.8-48.52,0-.06c.84-1.16,2.32-1.32,3.86-.42l2.42,1.4a8.58,8.58,0,0,1,4,6.81v.9a.46.46,0,0,1-.06.23L47.06,95.93a.5.5,0,0,1-.36.27,51.44,51.44,0,0,1-8.58.74Z"/><path class="cls-1" d="M65.43,41.21l-.24-.16-1.14-.66c-.65-.37-1.2-.29-1.51.13l0,0S32.62,80.38,36,82.2c1.56.84,13.76-14.58,20.58-23.57l2.55-3.4c5.35-7.19,4.9-7,6.89-9.84a3,3,0,0,0-.59-4.18Z"/><path class="cls-2" d="M15,83.6c-3.84,0-8.23-.49-11.54-2.27C1.36,80.21.21,78.77,0,77.07-.31,73.9,2.87,71,3.31,70.59l36.8-48.51,0-.06c.84-1.16,2.32-1.31,3.87-.42L46.44,23a8.59,8.59,0,0,1,3.94,6.81v.9a.38.38,0,0,1-.06.23L36.13,58.7l-.91-.47L49.35,30.59v-.78a7.61,7.61,0,0,0-3.43-5.93L43.5,22.49c-1.06-.62-2-.57-2.51.12l0,.06L4.1,71.26,4,71.34S.75,74.17,1.05,77c.14,1.35,1.11,2.51,2.88,3.47,6.36,3.42,17.4,1.76,19.19,1.46L28.85,70.7l.91.47L23.92,82.59a.54.54,0,0,1-.36.28A52.19,52.19,0,0,1,15,83.6Z"/><path class="cls-2" d="M34.56,61.65l-.92-.47.7-1.37.92.47-.7,1.37ZM33.15,64.4l-.91-.47.7-1.37.92.46-.71,1.38Zm-1.4,2.75-.92-.47.7-1.37.92.47-.7,1.37ZM30.34,69.9l-.91-.47.7-1.38.91.47-.7,1.38Z"/><path class="cls-1" d="M42.11,27.72,41,27.06a1.09,1.09,0,0,0-1.51.12l0,0S9.54,67,12.92,68.86c3,1.62,25.21-29.91,30-36.81a3,3,0,0,0-.59-4.18,1.58,1.58,0,0,0-.24-.15Z"/></g></g></svg>