<svg xmlns="http://www.w3.org/2000/svg" viewBox="0 0 136.07 138.89"><defs><style>.cls-1{fill:#221e2a;}.cls-2{fill:#06e;}</style></defs><g id="레이어_2" data-name="레이어 2"><g id="레이어_1-2" data-name="레이어 1"><path d="M13.43,108.93A19.32,19.32,0,0,1,4,106.68c-2.57-1.49-4-3.48-4-5.62V77H.58v24c0,1.92,1.32,3.74,3.71,5.11,5,2.91,13.24,2.91,18.28,0,2.38-1.37,3.7-3.19,3.7-5.11V77h.58v24c0,2.14-1.42,4.13-4,5.62A19.31,19.31,0,0,1,13.43,108.93Z"/><path d="M13.43,84.85A19.12,19.12,0,0,1,4,82.57C1.75,81.26.35,79.51.06,77.65a5.36,5.36,0,0,1,1.52-4.5l.43.39a4.8,4.8,0,0,0-1.37,4c.26,1.69,1.56,3.29,3.65,4.51,5,2.94,13.23,2.94,18.27,0a6.94,6.94,0,0,0,3.63-4.36,4.66,4.66,0,0,0-1-3.79l.46-.36a5.24,5.24,0,0,1,1.14,4.27c-.35,1.82-1.7,3.46-3.9,4.74A19.1,19.1,0,0,1,13.43,84.85Z"/><path d="M13.72,83.1a18,18,0,0,1-5.91-1C4,80.81,1.75,78.52,1.75,76V57.66a12,12,0,0,1,9.66-11.74l.11.57A11.4,11.4,0,0,0,2.34,57.66V76c0,2.28,2.11,4.36,5.66,5.58a17.65,17.65,0,0,0,11.44,0C23,80.34,25.1,78.26,25.1,76V57.66a11.44,11.44,0,0,0-8.87-11.1l.12-.57a12,12,0,0,1,9.33,11.67V76c0,2.54-2.26,4.83-6.05,6.13A18.1,18.1,0,0,1,13.72,83.1Z"/><path d="M82.36,105.77a.51.51,0,0,1-.29-.08l-10.92-6.3.59-1,10.62,6.13L134.24,74.7,112.17,62l-4,2.28-.58-1,4.24-2.45a.6.6,0,0,1,.58,0l23.25,13.37a.6.6,0,0,1,.29.51.57.57,0,0,1-.29.5L82.65,105.69A.51.51,0,0,1,82.36,105.77Z"/><path d="M82.59,125.23l-.58-1L134.9,93.76l-.07-19.06H136l.07,19.4a.59.59,0,0,1-.3.5Z"/><path d="M82.3,125.31a.6.6,0,0,1-.29-.08l-10.14-5.85.59-1,9.26,5.34V105.05h1.16v19.67a.58.58,0,0,1-.29.51A.6.6,0,0,1,82.3,125.31Z"/><path d="M86.09,116.87a.33.33,0,0,1-.14,0,.31.31,0,0,1-.15-.26v-7.63a.28.28,0,0,1,.15-.25l9.34-5.4a.29.29,0,0,1,.43.26v7.63a.27.27,0,0,1-.14.25l-9.34,5.4A.42.42,0,0,1,86.09,116.87Zm.3-7.76v7L95.14,111v-7Z"/><path d="M98.35,110a.23.23,0,0,1-.14,0,.29.29,0,0,1-.15-.25V102a.29.29,0,0,1,.15-.25l9.33-5.39a.32.32,0,0,1,.3,0,.29.29,0,0,1,.14.25v7.64a.29.29,0,0,1-.14.25l-9.34,5.39A.28.28,0,0,1,98.35,110Zm.29-7.76v7l8.76-5.05v-7Z"/><path d="M110,103a.33.33,0,0,1-.14,0,.31.31,0,0,1-.15-.26V95.11a.28.28,0,0,1,.15-.25l9.34-5.4a.3.3,0,0,1,.29,0,.31.31,0,0,1,.15.26v7.63a.31.31,0,0,1-.15.26L110.17,103A.37.37,0,0,1,110,103Zm.3-7.76v7l8.75-5.06v-7Z"/><path d="M122.28,96.12a.23.23,0,0,1-.14,0,.29.29,0,0,1-.15-.25V88.19a.29.29,0,0,1,.15-.25l9.33-5.39a.32.32,0,0,1,.3,0,.29.29,0,0,1,.14.25v7.64a.29.29,0,0,1-.14.25l-9.34,5.39A.28.28,0,0,1,122.28,96.12Zm.29-7.76v7l8.76-5v-7Z"/><path d="M77.92,103.24a.23.23,0,0,1-.14,0,.28.28,0,0,1-.15-.25V85.56a.29.29,0,0,1,.15-.25l32.68-18.87a.26.26,0,0,1,.29,0,.29.29,0,0,1,.15.25V84.08a.29.29,0,0,1-.15.25L78.07,103.2A.28.28,0,0,1,77.92,103.24Zm.29-17.51v16.72l32.11-18.54V67.19Z"/><rect x="105.11" y="57.76" width="0.58" height="11.96" transform="translate(-1.97 124.11) rotate(-60.51)"/><rect x="74.04" y="79.08" width="0.58" height="8.48" transform="translate(-35.72 102.18) rotate(-57.99)"/><path d="M82.59,94.59a.33.33,0,0,1-.14,0,.31.31,0,0,1-.15-.26V89a.29.29,0,0,1,.15-.25l6.42-3.71a.29.29,0,0,1,.43.26v5.25a.29.29,0,0,1-.14.25l-6.42,3.71A.42.42,0,0,1,82.59,94.59Zm.29-5.38v4.58l5.84-3.37V85.84Z"/><path d="M91.35,89.59a.28.28,0,0,1-.15,0,.29.29,0,0,1-.14-.25V84.05a.29.29,0,0,1,.14-.25l6.42-3.71a.3.3,0,0,1,.29,0,.29.29,0,0,1,.15.25v5.25a.28.28,0,0,1-.15.25l-6.42,3.71A.23.23,0,0,1,91.35,89.59Zm.29-5.37v4.57l5.84-3.37V80.85Z"/><path d="M100.1,84.6a.33.33,0,0,1-.14,0,.31.31,0,0,1-.15-.26V79.05a.29.29,0,0,1,.15-.25l6.42-3.71a.29.29,0,0,1,.43.26V80.6a.29.29,0,0,1-.14.25l-6.42,3.71A.42.42,0,0,1,100.1,84.6Zm.29-5.38V83.8l5.84-3.37V75.85Z"/><path d="M34.44,115.78a2.39,2.39,0,0,1-1.18-.28,1,1,0,0,1-.57-.85V104a1.74,1.74,0,0,1,.87-1.51l6.09-3.59.3.5L33.85,103a1.18,1.18,0,0,0-.58,1v10.69c0,.11.1.24.28.34a2,2,0,0,0,1.77,0c.18-.1.29-.23.29-.34V104.8a.29.29,0,0,1,.14-.25l6.62-3.91.3.51L36.19,105v9.68a1,1,0,0,1-.57.85A2.42,2.42,0,0,1,34.44,115.78Z"/><path d="M39.69,119.18a2.42,2.42,0,0,1-1.18-.28,1,1,0,0,1-.57-.85V107.3a1.65,1.65,0,0,1,.85-1.44L43.94,103l.28.51-5.15,2.83a1.07,1.07,0,0,0-.55.93v10.75c0,.11.11.24.29.34a2,2,0,0,0,1.77,0c.18-.1.28-.23.28-.34v-9.83A.29.29,0,0,1,41,108l2.51-1.38.28.51-2.36,1.3v9.65a1,1,0,0,1-.57.85A2.42,2.42,0,0,1,39.69,119.18Z"/><path d="M49.58,105.44l-9-5.36a13.78,13.78,0,0,1-6.73-11.8V48.21a9.9,9.9,0,0,0-5-8.57l-10.27-6.1a2.3,2.3,0,0,0-2.6.22,2.42,2.42,0,0,0-.85,1.9V46.58A1.63,1.63,0,0,1,14.37,48a1.83,1.83,0,0,1-1.84,0,1.77,1.77,0,0,1-.86-1.51v-11a5.66,5.66,0,0,1,8.5-5L30.66,36.8a13.43,13.43,0,0,1,6.7,11.61V88.28a10.51,10.51,0,0,0,5.14,9L50.37,102l-.3.5L42.2,97.8a11.12,11.12,0,0,1-5.43-9.52V48.41a12.86,12.86,0,0,0-6.4-11.11l-10.5-6.23a5,5,0,0,0-5.82.52,5.12,5.12,0,0,0-1.79,4v11a1.19,1.19,0,0,0,.57,1,1.26,1.26,0,0,0,1.26,0,1,1,0,0,0,.5-.94V35.66a3,3,0,0,1,1.08-2.36A2.89,2.89,0,0,1,18.93,33l10.26,6.1a10.52,10.52,0,0,1,5.25,9.08V88.28a13.21,13.21,0,0,0,6.44,11.3l9,5.36Z"/><rect x="73.84" y="123.36" width="0.58" height="5.48" transform="translate(-72.15 126.62) rotate(-59.75)"/><rect x="43.91" y="126.61" width="5.41" height="0.58" transform="translate(-61.61 45.87) rotate(-33.01)"/><path d="M60.31,138.89a1,1,0,0,1-.47-.13l-15.61-9a1,1,0,0,1-.48-.87L48.23,23a.94.94,0,0,1,.46-.78l4-2.43.3.49-4,2.44a.39.39,0,0,0-.18.3L44.33,128.92a.39.39,0,0,0,.19.34l15.61,9a.39.39,0,0,0,.38,0l15.85-9.88a.35.35,0,0,0,.18-.33L72.18,23a.37.37,0,0,0-.18-.3l-4.22-2.49.3-.5,4.21,2.49a.93.93,0,0,1,.47.78l4.36,105a1,1,0,0,1-.45.85l-15.85,9.87A.92.92,0,0,1,60.31,138.89Z"/><path d="M60.31,133.76A14.78,14.78,0,0,1,53.06,132c-2.05-1.18-3.18-2.79-3.18-4.52,0-1.45,3.25-105.73,3.39-110.17l1.17,0c0,1.09-3.39,108.7-3.39,110.13s.92,2.54,2.59,3.51A14.79,14.79,0,0,0,67,131c1.67-1,2.59-2.21,2.59-3.51s-3.35-109-3.38-110.13l1.16,0c.14,4.44,3.39,108.72,3.39,110.17,0,1.73-1.13,3.34-3.17,4.52A14.79,14.79,0,0,1,60.31,133.76Z"/><path class="cls-1" d="M60.31,21.68a9.84,9.84,0,0,1-4.85-1.18,3.75,3.75,0,0,1-2.19-3.14,3.76,3.76,0,0,1,2.19-3.14l.58,1a2.67,2.67,0,0,0-1.6,2.13A2.66,2.66,0,0,0,56,19.49a9.47,9.47,0,0,0,8.55,0,2.66,2.66,0,0,0,1.6-2.13,2.67,2.67,0,0,0-1.6-2.13l.58-1a3.75,3.75,0,0,1,2.18,3.14,3.73,3.73,0,0,1-2.18,3.14A9.85,9.85,0,0,1,60.31,21.68Z"/><path class="cls-1" d="M60.32,28.73a.33.33,0,0,1-.14,0l-10.82-6,.29-.51L60.32,28.1l11-5.91.27.51-11.17,6A.37.37,0,0,1,60.32,28.73Z"/><rect x="60.12" y="28.59" width="0.58" height="109.73"/><path d="M60.16,123.94,44.9,114.73a1,1,0,0,1-.45-.7,1,1,0,0,1,.27-.79l14.67-14L46.05,91.87a1,1,0,0,1-.47-.71.94.94,0,0,1,.27-.8L59.8,77.57,47,71.37a.95.95,0,0,1-.24-1.52l13-12-12-7.1a1,1,0,0,1-.44-.71.92.92,0,0,1,.28-.77l12.15-11-10.2-5.46.28-.51,10.56,5.65a.27.27,0,0,1,.15.22.29.29,0,0,1-.09.25L48.06,49.68A.37.37,0,0,0,48,50a.41.41,0,0,0,.17.27l12.34,7.3a.28.28,0,0,1,.14.22.3.3,0,0,1-.09.24L47.2,70.27a.34.34,0,0,0-.1.31.38.38,0,0,0,.19.27l13.16,6.38a.33.33,0,0,1,.16.22.31.31,0,0,1-.09.26L46.26,90.78a.34.34,0,0,0-.1.3.36.36,0,0,0,.18.28L60,99a.25.25,0,0,1,.15.21.28.28,0,0,1-.09.25L45.13,113.66a.38.38,0,0,0-.1.3.36.36,0,0,0,.18.27l15.25,9.21Z"/><path d="M60.58,123.75l-.29-.5,15.37-9a.38.38,0,0,0,.17-.27.35.35,0,0,0-.1-.31l-16-14.21a.31.31,0,0,1-.1-.26.3.3,0,0,1,.16-.22l14.79-7.61a.36.36,0,0,0,.16-.26.35.35,0,0,0-.1-.31L60.12,77.71a.3.3,0,0,1-.09-.26.28.28,0,0,1,.16-.22l13.39-6.38a.38.38,0,0,0,.08-.59L60.12,58a.3.3,0,0,1-.09-.25.28.28,0,0,1,.14-.22l12.58-7.3A.39.39,0,0,0,72.9,50a.38.38,0,0,0-.11-.3L60.12,38.36a.3.3,0,0,1-.1-.25.29.29,0,0,1,.16-.22L71,32.24l.27.51L60.82,38.21l12.37,11a.94.94,0,0,1-.14,1.48L60.81,57.84l13.25,12a1,1,0,0,1-.21,1.53l-13,6.2L75,90.35a1,1,0,0,1-.18,1.51L60.39,99.29l15.74,13.94a1,1,0,0,1-.17,1.5Z"/><path class="cls-2" d="M60.31,17.36s-7-6.37-2-12.41,12-.16,17.83-4.66c0,4.24-4.77,8.58-9.4,9.5a3.82,3.82,0,0,0,2.72.09C69.13,13.63,62.29,12.53,60.31,17.36Z"/><path class="cls-2" d="M60.31,17.65a.26.26,0,0,1-.19-.07c-.08-.07-7.14-6.64-2-12.81,2.77-3.34,6.19-3.16,9.5-3,2.84.15,5.77.3,8.38-1.73a.29.29,0,0,1,.47.23c0,4.14-4.3,8.18-8.53,9.51a4.2,4.2,0,0,0,1.43-.18.29.29,0,0,1,.3,0,.29.29,0,0,1,.12.27c-.19,2-2,2.73-4,3.51s-4.24,1.68-5.21,4a.28.28,0,0,1-.2.18Zm5-15.36c-2.48,0-4.8.45-6.79,2.85-4.19,5.05.42,10.43,1.66,11.72,1.13-2.31,3.37-3.19,5.35-4,1.69-.67,3.17-1.26,3.55-2.59A3.75,3.75,0,0,1,66.58,10a.28.28,0,0,1-.09-.29.28.28,0,0,1,.22-.21c4.13-.82,8.71-4.61,9.14-8.62-2.65,1.78-5.5,1.63-8.27,1.48C66.83,2.33,66.08,2.29,65.35,2.29Z"/><path d="M93.68,70.33A7.78,7.78,0,0,1,91.55,70c-1.77-.53-2.83-1.55-2.83-2.72v-6h.58v6c0,.89.93,1.71,2.42,2.16a6.88,6.88,0,0,0,3.92,0c1.49-.45,2.42-1.27,2.42-2.16v-6h.58v6c0,1.17-1.06,2.19-2.83,2.72A7.73,7.73,0,0,1,93.68,70.33Z"/><path d="M93.68,64.72a6.37,6.37,0,0,1-3.46-.94,2.68,2.68,0,0,1,0-4.81l.32.49a2.1,2.1,0,0,0,0,3.83,6.19,6.19,0,0,0,6.28,0,2.1,2.1,0,0,0,0-3.83l.32-.49a2.68,2.68,0,0,1,0,4.81A6.34,6.34,0,0,1,93.68,64.72Z"/><path d="M93.68,63.41a5.78,5.78,0,0,1-1.37-.17c-1.49-.38-2.42-1.21-2.42-2.17V35.92h.58V61.07c0,.68.76,1.3,2,1.61a5,5,0,0,0,2.44,0c1.23-.31,2-.93,2-1.61v-25h.59v25c0,1-.93,1.79-2.43,2.17A5.78,5.78,0,0,1,93.68,63.41Z"/><path d="M93.68,38.16a5.56,5.56,0,0,1-2.62-.6,1.73,1.73,0,0,1,0-3.27,6,6,0,0,1,5.24,0,1.72,1.72,0,0,1,0,3.27A5.53,5.53,0,0,1,93.68,38.16Zm0-3.9a4.89,4.89,0,0,0-2.33.54c-.57.31-.88.71-.88,1.12s.31.81.88,1.13a5.32,5.32,0,0,0,4.67,0,1.43,1.43,0,0,0,.87-1.13A1.4,1.4,0,0,0,96,34.8,4.93,4.93,0,0,0,93.68,34.26Z"/><path d="M82.59,76.22a7.66,7.66,0,0,1-2.12-.31c-1.78-.53-2.84-1.55-2.84-2.72V67.11h.58v6.08c0,.89.93,1.71,2.42,2.16a6.88,6.88,0,0,0,3.92,0C86,74.9,87,74.08,87,73.19V67.11h.58v6.08c0,1.17-1.06,2.19-2.83,2.72A7.73,7.73,0,0,1,82.59,76.22Z"/><path d="M82.59,70.32a6.76,6.76,0,0,1-3.45-.88,2.5,2.5,0,0,1,0-4.59l.3.5a1.92,1.92,0,0,0,0,3.59,6.58,6.58,0,0,0,6.3,0,1.92,1.92,0,0,0,0-3.59l.31-.5a2.51,2.51,0,0,1,0,4.59A6.82,6.82,0,0,1,82.59,70.32Z"/><path d="M82.59,69.3a5.78,5.78,0,0,1-1.37-.17c-1.49-.38-2.42-1.21-2.42-2.17V41.81h.58V67c0,.68.76,1.29,2,1.6a4.84,4.84,0,0,0,2.45,0c1.22-.31,2-.92,2-1.6V41.81h.59V67c0,1-.93,1.79-2.43,2.17A5.78,5.78,0,0,1,82.59,69.3Z"/><path d="M82.59,44.05a5.56,5.56,0,0,1-2.62-.6,1.73,1.73,0,0,1,0-3.27,6,6,0,0,1,5.24,0,1.72,1.72,0,0,1,0,3.27A5.53,5.53,0,0,1,82.59,44.05Zm0-3.9a4.89,4.89,0,0,0-2.33.54c-.57.31-.88.71-.88,1.12s.31.81.88,1.13a5.32,5.32,0,0,0,4.67,0,1.43,1.43,0,0,0,.87-1.13,1.4,1.4,0,0,0-.87-1.12A4.93,4.93,0,0,0,82.59,40.15Z"/></g></g></svg>