<svg xmlns="http://www.w3.org/2000/svg" viewBox="0 0 125.47 134.84"><defs><style>.cls-1{fill:#285056;}.cls-2{fill:#06e;}.cls-3{fill:#221e2a;}</style></defs><g id="레이어_2" data-name="레이어 2"><g id="레이어_1-2" data-name="레이어 1"><polygon points="54.45 101.04 54.17 100.56 62.08 95.99 62.36 96.48 54.45 101.04 54.45 101.04"/><polygon points="83.01 84.55 82.73 84.07 89.64 80.08 89.92 80.56 83.01 84.55 83.01 84.55"/><polygon points="50.94 84.15 50.66 83.67 63.24 76.41 63.52 76.89 50.94 84.15 50.94 84.15"/><polygon points="82.18 66.12 81.9 65.64 90.41 60.72 90.69 61.21 82.18 66.12 82.18 66.12"/><path class="cls-1" d="M91.07,48.33l-5.89-3.41-3.69,2.13-.28-.48L85,44.36a.28.28,0,0,1,.28,0l6,3.49-.28.48Z"/><polygon points="36.86 72.82 36.58 72.34 40.54 70.05 40.82 70.53 36.86 72.82 36.86 72.82"/><path d="M50.89,95.73h-.56V84.07L40,78.07l.27-.48,10.51,6.08a.27.27,0,0,1,.14.24V95.73Z"/><path class="cls-2" d="M54.51,95.41a.32.32,0,0,1-.14,0,.29.29,0,0,1-.14-.25V87.78a.29.29,0,0,1,.14-.24l8.81-5.13.28.48L54.79,88v6.7l8.07-4.71.28.49-8.49,4.94a.25.25,0,0,1-.14,0Z"/><polygon class="cls-2" points="83.01 78.73 82.73 78.25 89.87 74.09 90.15 74.58 83.01 78.73 83.01 78.73"/><polygon class="cls-2" points="82.67 71.59 82.39 71.11 90.19 66.56 90.47 67.04 82.67 71.59 82.67 71.59"/><path d="M50.05,76.11a.31.31,0,0,1-.13,0,.29.29,0,0,1-.14-.25V65.12h.55V75.36l12.89-7.45.28.49L50.19,76.08a.32.32,0,0,1-.14,0Z"/><path d="M50.29,65.34a.23.23,0,0,1-.14,0l-9.59-5.55a.29.29,0,0,1-.14-.25.28.28,0,0,1,.14-.24l24-13.85.28.49L41.25,59.51l9,5.23,13.77-8,.28.49-13.92,8a.22.22,0,0,1-.13,0Z"/><path d="M40.87,70.09l8.91,5.15v-10L40.87,60.1v10ZM50.05,76a.43.43,0,0,1-.14,0l-9.46-5.48a.29.29,0,0,1-.14-.24V59.62a.29.29,0,0,1,.14-.24.28.28,0,0,1,.28,0l9.46,5.47a.27.27,0,0,1,.14.24V75.73a.28.28,0,0,1-.14.24.33.33,0,0,1-.14,0Z"/><path class="cls-2" d="M52.28,71.73a.23.23,0,0,1-.14,0,.29.29,0,0,1-.14-.24V67.27a.27.27,0,0,1,.14-.24l11.71-6.82.28.47L52.56,67.43V71l11.15-6.5L64,65,52.42,71.69a.23.23,0,0,1-.14,0Z"/><polygon class="cls-2" points="25.32 63.54 23.93 48.51 24.49 48.46 25.88 63.49 25.32 63.54 25.32 63.54"/><polygon class="cls-2" points="33.83 66.67 33.29 66.54 37.8 48.42 38.34 48.56 33.83 66.67 33.83 66.67"/><path class="cls-3" d="M29.17,130c-7.48,0-14.95-1.65-20.64-4.93C3.89,122.35,1,118.89.22,115a11.89,11.89,0,0,1,2.44-9.63l15-25.46,1,.56L3.6,106l0,0a10.83,10.83,0,0,0-2.26,8.76c.74,3.56,3.42,6.77,7.77,9.28,11.08,6.4,29.1,6.4,40.17,0,7.06-4.07,9.8-10,7.16-15.49L39.57,80.26l1-.56L57.39,108c2.93,6.1,0,12.6-7.58,17C44.12,128.31,36.64,130,29.17,130Z"/><path class="cls-2" d="M28.29,76.47c.8,0,1.06,1.35,1.41,3.2s.79,4.1,1.75,4c1.68-.1,2.63-3,3.25-4.84.11-.32.21-.64.31-.91a1.35,1.35,0,0,1,.87-.87,3.67,3.67,0,0,1,2.48.59l-4-6.71s-1.15-2.35-2.55-2.28a5.25,5.25,0,0,0-1.83.73,4.26,4.26,0,0,1-1.7.67c-.65,0-.76-.81-.87-1.66-.09-.67-.2-1.51-.57-1.56-.54-.06-1.91,2.05-2.87,4.07C24,71,20.37,77,20.37,77c.77-.54,1.71-1.07,2.27-.88s.45,1,.33,2-.25,2.22.19,2.75a.82.82,0,0,0,.59.27c1.12.07,1.94-1.39,2.67-2.69.61-1.1,1.14-2,1.87-2Zm3.12,7.8c-1.41,0-1.86-2.39-2.26-4.49-.19-1-.52-2.75-.86-2.75s-.93.94-1.39,1.77c-.8,1.44-1.72,3.07-3.19,3a1.38,1.38,0,0,1-1-.48c-.59-.71-.44-2-.32-3.16a4,4,0,0,0,0-1.46c-.42-.13-1.83.78-2.89,1.71a.27.27,0,0,1-.36,0,.28.28,0,0,1-.07-.36l4.36-7.33c.52-1.08,2.26-4.53,3.45-4.37.78.11.92,1.13,1,2,.05.37.16,1.17.32,1.17a4.17,4.17,0,0,0,1.43-.6,5.57,5.57,0,0,1,2.07-.8c1.77-.1,3,2.46,3.07,2.57l4.59,7.72a.28.28,0,0,1-.06.34.27.27,0,0,1-.35,0c-.54-.41-2.13-1.41-3-1.15a.78.78,0,0,0-.51.52l-.3.9c-.71,2.15-1.69,5.09-3.74,5.21Z"/><path class="cls-2" d="M27,47.8a7.62,7.62,0,0,1-7.08-10.41,9.38,9.38,0,0,1-.26-10.47l.47.3a8.84,8.84,0,0,0,.33,10,.26.26,0,0,1,0,.27,7.06,7.06,0,0,0,11,8.14.27.27,0,0,1,.33,0A8.82,8.82,0,0,0,36.69,47v.56a9.34,9.34,0,0,1-5-1.42A7.63,7.63,0,0,1,27,47.8Z"/><path class="cls-2" d="M39.55,47.14l-.23-.5A8.67,8.67,0,0,0,41.14,32a.27.27,0,0,1-.09-.29,5.35,5.35,0,0,0,.19-1.43,5.54,5.54,0,0,0-5.54-5.53,5.46,5.46,0,0,0-3.27,1.08.27.27,0,0,1-.33,0,8.64,8.64,0,0,0-9.14-1l-.25-.51a9.27,9.27,0,0,1,4.05-.92,9.07,9.07,0,0,1,5.51,1.84,6,6,0,0,1,3.43-1.07,6.1,6.1,0,0,1,6.1,6.09,6.18,6.18,0,0,1-.17,1.41,9.22,9.22,0,0,1-2.08,15.45Z"/><path class="cls-2" d="M29.39,31.37a2.94,2.94,0,1,1-2.94-2.93,2.94,2.94,0,0,1,2.94,2.93Z"/><path d="M123.25,108.57a3.29,3.29,0,0,1-.94-.14c-.8-.24-1.29-.72-1.29-1.28v-18a.65.65,0,0,0-.34-.59.62.62,0,0,0-.66,0l-9.65,5.48-.27-.48,9.64-5.49a1.23,1.23,0,0,1,1.84,1.08v18c0,.3.34.59.89.76a2.73,2.73,0,0,0,1.55,0c.55-.17.9-.46.89-.76V89.33a4.71,4.71,0,0,0-1.6-3.65,4.54,4.54,0,0,0-5.21-.51l-7.88,4.48-.27-.49,7.88-4.48a5.1,5.1,0,0,1,5.84.57,5.26,5.26,0,0,1,1.8,4.08v17.81c0,.56-.48,1-1.29,1.29a3.28,3.28,0,0,1-.93.14Z"/><path d="M118.35,83.87a4.62,4.62,0,0,0-6.79-3.11l-1.8,1-.27-.48,1.8-1a5.08,5.08,0,0,1,5.14,0,5.15,5.15,0,0,1,2.47,3.45l-.55.1Z"/><path d="M116.57,104.12a3.29,3.29,0,0,1-.94-.14c-.81-.24-1.29-.72-1.29-1.29V91.84h.56v10.85c0,.3.34.6.89.76a2.73,2.73,0,0,0,1.55,0c.55-.16.9-.46.9-.76V89.61h.55v11c0,1.17,0,1.76,0,2h0c0,.57-.48,1-1.29,1.29a3.28,3.28,0,0,1-.93.14Z"/><path d="M110,86.06l-.27-.49,3.32-1.87a1.21,1.21,0,0,1,1.23,0,1.18,1.18,0,0,1,.62,1.06v.93h-.56v-.93a.67.67,0,0,0-.34-.59.68.68,0,0,0-.68,0L110,86.06Z"/><path d="M73.15,134.84a19.15,19.15,0,0,1-9.39-2.24c-2.56-1.48-4-3.46-4-5.58V115.21h.56V127c0,1.91,1.31,3.72,3.69,5.1,5,2.9,13.2,2.9,18.22,0,2.38-1.38,3.69-3.19,3.69-5.1V115.21h.56V127c0,2.12-1.41,4.1-4,5.58a19.15,19.15,0,0,1-9.39,2.24Z"/><path d="M73,123.28a19.08,19.08,0,0,1-9.34-2.23c-2.44-1.41-3.84-3.3-4-5.32s1-3.71,3-5.15L63,111c-1.83,1.33-2.8,3-2.71,4.67s1.39,3.55,3.67,4.87c5,2.88,13.13,2.88,18.13,0,2.29-1.33,3.59-3.07,3.67-4.91s-1-3.4-2.87-4.74l.31-.45c2.09,1.45,3.2,3.3,3.12,5.22s-1.49,3.94-4,5.36A19.1,19.1,0,0,1,73,123.28Z"/><path class="cls-3" d="M73,120.63a15.28,15.28,0,0,1-7.47-1.78c-2.11-1.22-3.26-2.86-3.26-4.64,0-1.5,3.36-72.9,3.5-75.94l1.11,0c0,.75-3.5,74.42-3.5,75.89s1,2.67,2.7,3.67a15.27,15.27,0,0,0,13.84,0c1.75-1,2.71-2.31,2.71-3.67s-3.47-75.14-3.5-75.89l1.11,0c.14,3,3.5,74.44,3.5,75.94,0,1.78-1.16,3.42-3.26,4.64A15.29,15.29,0,0,1,73,120.63Z"/><path class="cls-3" d="M73,42.7a10.19,10.19,0,0,1-5-1.2,4.14,4.14,0,0,1-2.16-2.59,3,3,0,0,1,.51-2.38l.92.64a1.87,1.87,0,0,0-.35,1.5,3.18,3.18,0,0,0,1.64,1.87,9.81,9.81,0,0,0,8.89,0c1.49-.86,2-2,1.44-3.12l1-.53c.88,1.64.15,3.45-1.87,4.61a10.19,10.19,0,0,1-5,1.2Z"/><path d="M100.43,119.05A19.23,19.23,0,0,1,91,116.81c-2.56-1.48-4-3.46-4-5.58V99.63h.55v11.6c0,1.91,1.31,3.72,3.69,5.1,5,2.9,13.2,2.9,18.22,0,2.39-1.38,3.7-3.19,3.7-5.1V99.63h.55v11.6c0,2.12-1.41,4.1-4,5.58a19.25,19.25,0,0,1-9.38,2.24Z"/><path d="M100.19,107.49a19.1,19.1,0,0,1-9.35-2.23C88.4,103.85,87,102,86.9,99.94s.95-3.71,2.94-5.15l.33.45c-1.84,1.33-2.8,3-2.72,4.67.1,1.83,1.4,3.55,3.67,4.87,5,2.88,13.14,2.88,18.14,0,2.27-1.32,3.57-3,3.66-4.87.09-1.68-.87-3.34-2.71-4.67l.32-.45c2,1.44,3,3.27,3,5.15s-1.5,3.91-4,5.32a19.06,19.06,0,0,1-9.34,2.23Z"/><path class="cls-3" d="M100.19,104.84a15.29,15.29,0,0,1-7.48-1.78c-2.1-1.22-3.26-2.86-3.26-4.64,0-1.5,3.36-72.9,3.51-75.94l1.11.05c0,.75-3.51,74.42-3.51,75.89s1,2.67,2.71,3.67a15.27,15.27,0,0,0,13.84,0c1.74-1,2.7-2.31,2.7-3.67s-3.46-75.14-3.5-75.89l1.11-.05c.15,3,3.51,74.44,3.51,75.94,0,1.78-1.16,3.42-3.26,4.64a15.29,15.29,0,0,1-7.48,1.78Z"/><path class="cls-3" d="M100.19,26.91a10.19,10.19,0,0,1-5-1.2A4.19,4.19,0,0,1,93,23.18a2.87,2.87,0,0,1,.42-2.31l.93.6a1.79,1.79,0,0,0-.27,1.44,3.16,3.16,0,0,0,1.62,1.84,9.87,9.87,0,0,0,8.89,0c1.35-.78,1.93-1.81,1.58-2.82l1.05-.36c.53,1.54-.24,3.09-2.07,4.14a10.19,10.19,0,0,1-5,1.2Z"/><path class="cls-2" d="M78.21,32.42a4.38,4.38,0,0,1-3-1.17l.38-.41a3.8,3.8,0,1,0-1.21-2.78h-.55a4.36,4.36,0,1,1,4.36,4.36Z"/><path class="cls-2" d="M73.36,38.83a7.67,7.67,0,0,1-3.12-14.68A4.71,4.71,0,0,1,70.09,23a4.93,4.93,0,1,1,9.85,0h-.56a4.37,4.37,0,1,0-8.73,0,4.19,4.19,0,0,0,.19,1.26.28.28,0,0,1-.17.34,7.12,7.12,0,1,0,9.62,8.21l.54.13a7.63,7.63,0,0,1-7.47,5.92Z"/><path class="cls-2" d="M96,6.31a3.88,3.88,0,0,0-1.15,7.58.28.28,0,0,1,.18.16.3.3,0,0,1,0,.23,5.64,5.64,0,0,0-.64,2.63,5.78,5.78,0,1,0,5.78-5.78h-.06a.3.3,0,0,1-.21-.1.27.27,0,0,1-.06-.23,4.82,4.82,0,0,0,0-.62A3.88,3.88,0,0,0,96,6.31Zm4.16,16.94a6.35,6.35,0,0,1-6.34-6.34,6.25,6.25,0,0,1,.56-2.59,4.43,4.43,0,1,1,6.06-4.13c0,.12,0,.25,0,.39a6.34,6.34,0,0,1-.26,12.67Z"/><path class="cls-2" d="M103.21.56a2.23,2.23,0,1,0,2.22,2.22A2.23,2.23,0,0,0,103.21.56Zm0,5A2.79,2.79,0,1,1,106,2.78a2.78,2.78,0,0,1-2.78,2.79Z"/></g></g></svg>